<svg width="94" height="108" viewBox="0 0 94 108" fill="none" xmlns="http://www.w3.org/2000/svg">
<path d="M46.0408 0.478955C42.1978 0.498892 38.5284 0.870092 35.2999 1.51755C25.788 3.42102 24.061 7.40358 24.061 14.7497V24.4512H46.5387V27.6848H15.6248C9.09241 27.6848 3.37154 32.1316 1.58252 40.5903C-0.481487 50.2862 -0.572867 56.3364 1.58252 66.4604C3.1804 73.9964 6.99654 79.366 13.5289 79.366H21.2576V67.7363C21.2576 59.3345 27.6768 51.9238 35.2999 51.9238H57.7516C64.0014 51.9238 68.9904 46.0966 68.9904 38.9888V14.7488C68.9904 7.85073 63.8514 2.66818 57.7516 1.51661C53.8893 0.789396 49.8837 0.458069 46.0408 0.478955ZM33.8848 8.28079C36.207 8.28079 38.1025 10.4634 38.1025 13.1463C38.1025 15.8197 36.2061 17.9823 33.8848 17.9823C31.555 17.9823 29.6671 15.8206 29.6671 13.1463C29.6671 10.4634 31.555 8.28079 33.8848 8.28079Z" fill="url(#paint0_linear_34_2)"/>
<path d="M71.7937 27.684V38.987C71.7937 47.7506 65.2328 55.1261 57.7514 55.1261H35.2997C29.1496 55.1261 24.0609 61.0862 24.0609 68.0612V92.2993C24.0609 99.1983 29.3575 103.256 35.2997 105.234C42.4148 107.604 49.238 108.032 57.7514 105.234C63.4102 103.379 68.9903 99.6445 68.9903 92.2993V82.5987H46.5386V79.3652H80.2291C86.7623 79.3652 89.196 74.2045 91.468 66.4596C93.8153 58.4869 93.7156 50.8179 91.468 40.5895C89.8533 33.2254 86.7699 27.684 80.2291 27.684H71.7937ZM59.1657 89.0658C61.4955 89.0658 63.3834 91.2274 63.3834 93.9018C63.3834 96.5847 61.4955 98.7673 59.1657 98.7673C56.8435 98.7673 54.948 96.5847 54.948 93.9018C54.948 91.2284 56.8443 89.0658 59.1657 89.0658Z" fill="url(#paint1_linear_34_2)"/>
<defs>
<linearGradient id="paint0_linear_34_2" x1="-2.99452" y1="4.57658" x2="74.2395" y2="62.6127" gradientUnits="userSpaceOnUse">
<stop stop-color="#5A9FD4"/>
<stop offset="1" stop-color="#306998"/>
</linearGradient>
<linearGradient id="paint1_linear_34_2" x1="69.0658" y1="84.6975" x2="47.2926" y2="57.7573" gradientUnits="userSpaceOnUse">
<stop stop-color="#FFD43B"/>
<stop offset="1" stop-color="#FFE873"/>
</linearGradient>
</defs>
</svg>
